<?xml version="1.0" encoding="UTF-8" standalone="no"?>
<!-- Created with Inkscape (http://www.inkscape.org/) -->

<svg
   xmlns:dc="http://purl.org/dc/elements/1.1/"
   xmlns:cc="http://creativecommons.org/ns#"
   xmlns:rdf="http://www.w3.org/1999/02/22-rdf-syntax-ns#"
   xmlns:svg="http://www.w3.org/2000/svg"
   xmlns="http://www.w3.org/2000/svg"
   xmlns:sodipodi="http://sodipodi.sourceforge.net/DTD/sodipodi-0.dtd"
   xmlns:inkscape="http://www.inkscape.org/namespaces/inkscape"
   width="210mm"
   height="297mm"
   viewBox="0 0 210 297"
   version="1.1"
   id="svg8"
   inkscape:version="0.92.1 r15371"
   sodipodi:docname="UnectJr-solid.svg">
  <defs
     id="defs2" />
  <sodipodi:namedview
     id="base"
     pagecolor="#ffffff"
     bordercolor="#666666"
     borderopacity="1.0"
     inkscape:pageopacity="0.0"
     inkscape:pageshadow="2"
     inkscape:zoom="0.49497475"
     inkscape:cx="618.17873"
     inkscape:cy="648.18244"
     inkscape:document-units="mm"
     inkscape:current-layer="layer1"
     showgrid="false"
     inkscape:pagecheckerboard="true"
     inkscape:window-width="1366"
     inkscape:window-height="717"
     inkscape:window-x="0"
     inkscape:window-y="27"
     inkscape:window-maximized="1" />
  <metadata
     id="metadata5">
    <rdf:RDF>
      <cc:Work
         rdf:about="">
        <dc:format>image/svg+xml</dc:format>
        <dc:type
           rdf:resource="http://purl.org/dc/dcmitype/StillImage" />
        <dc:title></dc:title>
      </cc:Work>
    </rdf:RDF>
  </metadata>
  <g
     inkscape:label="Camada 1"
     inkscape:groupmode="layer"
     id="layer1">
    <g
       id="g172"
       transform="matrix(0.22164109,0,0,0.22164109,121.50037,113.68637)">
      <rect
         ry="80.253716"
         rx="80.253716"
         y="-123.7163"
         x="-310.63065"
         height="459.67923"
         width="459.67923"
         id="rect160"
         style="opacity:1;fill:#442178;fill-opacity:1;stroke:#0066ff;stroke-width:0.52436244;stroke-linecap:round;stroke-linejoin:round;stroke-miterlimit:4;stroke-dasharray:none;stroke-opacity:1;paint-order:normal" />
      <path
         inkscape:connector-curvature="0"
         id="path114"
         style="fill:#ffffff;fill-rule:evenodd;stroke-width:0.04108626"
         d="m -187.81181,183.98903 c 0,12.64964 3.06173,27.21664 7.61018,38.59461 3.04787,7.62419 7.06355,14.85634 11.75674,21.53806 l 7.27343,9.37407 c 2.59345,3.41718 11.78298,11.6477 15.48846,14.40899 l 3.93682,2.85811 c 3.95143,2.87034 8.01325,5.08061 12.25842,7.4468 1.63943,0.91378 2.95553,1.32177 4.64601,2.14886 19.9192,9.74517 46.480184,11.92981 67.760734,6.83899 6.637078,-1.58778 13.789773,-3.50953 19.890138,-6.61002 l 6.455588,-3.05734 c 0.933377,-0.52017 1.116055,-0.7311 2.150052,-1.24738 l 8.20152,-5.04849 c 1.41836,-0.94314 2.427611,-1.70934 3.755042,-2.70018 l 9.0833171,-7.56419 c 2.1920875,-1.65857 4.7474474,-5.0089 6.3416313,-6.56858 L 3.3266037,249.0791 C 16.886368,231.52743 26.229733,208.38542 26.229733,186.0275 V -5.5856103 c 0,-0.7828165 -0.236419,-1.019235 -1.019239,-1.019235 H -45.117449 V 140.8421 c 3.982738,2.66694 9.812849,11.13059 12.119937,15.73903 5.532425,11.05084 7.07399,24.35116 4.054368,36.44724 -1.231434,4.93274 -3.119651,9.67772 -5.649891,14.05519 l -6.136517,8.47252 -5.841213,5.70996 c -0.615492,0.52092 -1.044951,0.80921 -1.704792,1.353 -0.62585,0.51569 -1.340846,1.04443 -1.933975,1.46345 -15.340283,10.83663 -37.900337,12.81064 -54.656968,3.68632 l -9.46351,-6.16476 c -7.45351,-6.35415 -12.68445,-13.35212 -16.11207,-22.61864 -3.42396,-9.2566 -4.23458,-17.73338 -2.62609,-27.5226 1.45362,-8.84667 4.77674,-16.19897 10.05247,-23.24225 1.61274,-2.15311 4.46191,-5.63975 6.55107,-7.03866 V -77.610444 h -71.34718 z" />
      <path
         inkscape:connector-curvature="0"
         id="path116"
         style="fill:#442178;fill-rule:evenodd;stroke-width:0.04108626"
         d="m -116.67632,519.65181 h 70.667661 v -17.66645 h -53.000765 v -33.97394 c 0,-0.78283 0.236418,-1.01924 1.019239,-1.01924 h 51.981526 v -17.66645 h -51.981526 c -0.782821,0 -1.019239,-0.23642 -1.019239,-1.01924 v -32.95478 c 0,-0.78282 0.236418,-1.01916 1.019239,-1.01916 h 51.981526 V 396.6661 h -70.667661 z" />
      <path
         inkscape:connector-curvature="0"
         id="path118"
         style="fill:#442178;fill-rule:evenodd;stroke-width:0.04108626"
         d="m -204.67116,519.65181 h 18.00662 v -88.33233 c 0,-4.43836 2.63846,-9.58522 5.73836,-12.26796 l 1.67669,-1.38102 c 10.86682,-8.22321 27.5791,-0.62414 27.5791,15.68746 v 86.29385 h 17.66689 v -89.35149 c 0,-4.97402 -1.51861,-9.79116 -3.05726,-13.2503 -1.21809,-2.73834 -4.76727,-7.65289 -6.87476,-9.77268 -0.8739,-0.87897 -1.1288,-1.13633 -2.15885,-1.9181 -0.95022,-0.72118 -1.2514,-1.25573 -2.17166,-1.90528 -1.53896,-1.0864 -3.3981,-2.37768 -5.21425,-3.27938 -8.09851,-4.02052 -18.24735,-4.78009 -26.60487,-2.02543 -2.80356,0.92406 -4.14046,1.64308 -6.57939,2.93354 v -4.41659 h -18.00662 z" />
      <path
         inkscape:connector-curvature="0"
         id="path120"
         style="fill:#442178;fill-rule:evenodd;stroke-width:0.04108626"
         d="m -292.32628,484.65863 c 0,9.25706 2.27429,13.2673 5.99907,19.48155 0.49207,0.82083 0.32072,0.51092 0.87316,1.16532 l 1.87904,2.1979 c 0.54924,0.58277 0.62988,0.80331 1.07231,1.30581 l 2.15169,1.92534 c 8.08167,7.21657 14.01113,8.91726 25.39707,8.91726 15.06526,0 30.00715,-13.57944 32.52674,-28.28746 0.45144,-2.63481 0.76858,-5.11937 0.76858,-8.06468 V 396.6661 h -18.00662 v 89.01177 c 0,2.05002 -0.98189,4.99698 -1.76128,6.39253 -8.65282,15.49486 -27.46685,11.08319 -32.18024,-2.00926 -0.71022,-1.97273 -1.05263,-6.09321 -1.05263,-8.79994 v -84.5951 h -17.66689 z" />
      <path
         inkscape:connector-curvature="0"
         id="path122"
         style="fill:#442178;fill-rule:evenodd;stroke-width:0.04108626"
         d="m -29.021199,435.05664 v 46.20456 c 0,8.08577 1.232699,15.43702 5.295706,21.54387 l 2.856921,3.93794 c 5.421521,7.18646 15.9780564,12.9088 25.4824875,12.9088 9.4787195,0 17.2499595,-1.68176 24.2074535,-8.06841 2.63146,-2.41561 3.741775,-3.27058 6.127198,-6.44336 1.195807,-1.59053 2.40309,-3.44491 3.306355,-5.18719 2.465693,-4.75617 3.391543,-9.65715 3.391543,-15.63394 H 23.979567 c -0.0632,2.83679 -1.020801,6.17922 -2.31395,8.55779 l -3.036763,3.75809 c -5.30786,5.27514 -12.8707848,6.9689 -19.34537947,3.88607 -2.15437443,-1.0258 -3.53882123,-2.13723 -5.11749913,-3.71584 -0.8274649,-0.82746 -1.424325,-1.35992 -2.0644859,-2.35225 -1.998974,-3.09908 -3.1160725,-5.7877 -3.1160725,-10.13386 v -51.98019 c 0,-8.26607 3.6969048,-13.30456 10.0728925,-16.42704 10.1712036,-4.98111 24.6041205,1.85117 24.9212575,16.08732 h 17.666898 c 0,-9.38346 -2.623854,-15.96755 -8.096281,-22.82025 -2.558565,-3.20402 -7.695444,-7.17498 -11.3805,-9.00417 -2.073278,-1.02907 -3.341159,-1.64993 -5.801117,-2.35278 -9.3733247,-2.67804 -21.3447187,-1.19111 -29.478044,4.56343 -4.637661,3.28131 -7.725556,6.36384 -10.751814,11.33145 -1.127608,1.85088 -2.147365,3.67954 -2.916023,5.91739 -1.604246,4.67113 -2.243885,9.3017 -2.243885,15.42257 z" />
      <path
         inkscape:connector-curvature="0"
         id="path124"
         style="fill:#442178;fill-rule:evenodd;stroke-width:0.04108626"
         d="m 58.973642,414.33255 h 25.481144 c 0.782821,0 1.019239,0.23634 1.019239,1.01916 v 104.3001 H 103.14092 V 414.33255 h 26.50039 V 396.6661 H 58.973642 Z" />
      <path
         inkscape:connector-curvature="0"
         id="path126"
         style="fill:#ffffff;fill-rule:evenodd;stroke-width:0.04108626"
         d="m -104.78513,178.21348 c 0,8.57553 0.511,11.10197 5.632902,17.80933 1.817558,2.38021 5.357348,4.92915 8.065574,6.20366 l 3.954939,1.48097 c 8.155162,2.27273 17.881697,-0.33376 23.923481,-7.02047 6.65452,-7.36497 8.207038,-17.58282 4.290782,-26.28916 -1.70598,-3.79268 -4.231827,-6.7052 -7.419669,-9.22776 -8.96146,-7.09113 -23.050037,-6.33932 -31.568768,2.17919 -3.506851,3.50677 -6.879241,9.38592 -6.879241,14.86424 z" />
      <path
         inkscape:connector-curvature="0"
         id="path128"
         style="fill:#442178;fill-rule:evenodd;stroke-width:0.04108626"
         d="m 181.28312,411.27484 h -5.09627 v -9.51271 h 5.43598 c 1.876,0 4.07695,2.14573 4.07695,5.09611 0,2.08334 -2.33332,4.4166 -4.41666,4.4166 z m 9.51292,9.51263 v 10.19229 h -5.09626 c 0,-13.87832 1.13894,-14.60881 -9.51293,-14.60881 v 14.60881 H 171.0906 V 396.6661 h 11.55147 c 3.25701,0 8.15397,4.43985 8.15397,8.83318 0,4.83793 -0.37467,4.48681 -3.05771,8.49347 1.95895,1.43528 2.76144,3.94711 3.05771,6.79472 z" />
      <path
         inkscape:connector-curvature="0"
         id="path130"
         style="fill:#442178;fill-rule:evenodd;stroke-width:0.04108626"
         d="m 151.38522,401.76213 h 9.85273 v 19.02549 c 0,6.45805 -9.362,7.11885 -9.513,0.33972 h -5.09619 c 0,5.97299 4.70154,9.85242 8.49369,9.85242 2.4332,0 3.40175,0.25356 5.16766,-0.60804 l 3.42106,-2.35464 c 1.30395,-1.41337 2.62296,-3.93109 2.62296,-6.55002 V 396.6661 h -14.94891 z" />
    </g>
  </g>
</svg>
